<svg width="81" height="80" viewBox="0 0 81 80" fill="none" xmlns="http://www.w3.org/2000/svg">
<circle cx="40.5" cy="40" r="39.5" stroke="#FF7F72"/>
<g clip-path="url(#clip0_692_2268)">
<path d="M42.6771 52.0086L40.9605 52.0405L34.1163 56.5777C34.0929 56.5945 34.0605 56.5777 34.0605 56.549V51.9905H30.7173C28.2974 51.9905 26.3364 50.0291 26.3364 47.6096V35.1786C26.3364 32.7591 28.2974 30.7977 30.7173 30.7977H49.283C51.7025 30.7977 53.6639 32.7591 53.6639 35.1786V47.6096C53.6639 50.0291 51.7025 51.9905 49.283 51.9905L47.4931 52.0086H42.6771Z" stroke="#FF7F72" stroke-miterlimit="10"/>
<path d="M34.969 39.8991C36.3585 39.8991 37.4849 38.7727 37.4849 37.3832C37.4849 35.9937 36.3585 34.8673 34.969 34.8673C33.5795 34.8673 32.4531 35.9937 32.4531 37.3832C32.4531 38.7727 33.5795 39.8991 34.969 39.8991Z" stroke="#FF7F72" stroke-miterlimit="10"/>
<path d="M45.0589 39.8991C46.4484 39.8991 47.5748 38.7727 47.5748 37.3832C47.5748 35.9937 46.4484 34.8673 45.0589 34.8673C43.6694 34.8673 42.543 35.9937 42.543 37.3832C42.543 38.7727 43.6694 39.8991 45.0589 39.8991Z" stroke="#FF7F72" stroke-miterlimit="10"/>
<path d="M53.7489 45.0224V37.9956H55.6554C56.4506 37.9956 57.0954 38.6404 57.0954 39.4357V43.5828C57.0954 44.378 56.4506 45.0228 55.6554 45.0228H53.7489V45.0224ZM22.9048 43.5828V39.4357C22.9048 38.6404 23.5496 37.9956 24.3448 37.9956H26.2512V45.0228H24.3448C23.5496 45.0224 22.9048 44.3776 22.9048 43.5828ZM45.3264 43.8695C44.9749 46.3923 42.6796 48.3402 39.8992 48.3402C37.1196 48.3402 34.8235 46.3923 34.472 43.8695H45.3264Z" stroke="#FF7F72" stroke-miterlimit="10"/>
<path d="M39.8989 26.8557C40.8489 26.8557 41.6191 26.0855 41.6191 25.1355C41.6191 24.1854 40.8489 23.4153 39.8989 23.4153C38.9489 23.4153 38.1787 24.1854 38.1787 25.1355C38.1787 26.0855 38.9489 26.8557 39.8989 26.8557Z" stroke="#FF7F72" stroke-miterlimit="10"/>
<path d="M39.8989 29.0164V26.8557" stroke="#FF7F72" stroke-miterlimit="10"/>
</g>
<defs>
<clipPath id="clip0_692_2268">
<rect width="36" height="36" fill="white" transform="translate(22 22)"/>
</clipPath>
</defs>
</svg>
