<svg width="80" height="80" viewBox="0 0 80 80" fill="none" xmlns="http://www.w3.org/2000/svg">
<circle cx="40" cy="40" r="39.5" stroke="#75E8F0"/>
<path d="M35.4999 50.125C35.4999 49.8266 35.6184 49.5405 35.8294 49.3295C36.0404 49.1185 36.3265 49 36.6249 49H43.3749C43.6732 49 43.9594 49.1185 44.1704 49.3295C44.3813 49.5405 44.4999 49.8266 44.4999 50.125C44.4999 50.4234 44.3813 50.7095 44.1704 50.9205C43.9594 51.1315 43.6732 51.25 43.3749 51.25H36.6249C36.3265 51.25 36.0404 51.1315 35.8294 50.9205C35.6184 50.7095 35.4999 50.4234 35.4999 50.125ZM28.7499 40.1395C28.7499 37.21 31.5286 34.9713 34.4424 35.2435C38.1393 35.5885 41.8604 35.5885 45.5574 35.2435C48.4711 34.9713 51.2499 37.21 51.2499 40.1395V42.7428C51.2591 43.2406 51.091 43.7255 50.7757 44.1108C50.4604 44.4962 50.0184 44.7569 49.5286 44.8465C47.6274 45.1773 44.2636 45.625 39.9999 45.625C35.7361 45.625 32.3724 45.175 30.4711 44.8465C29.9813 44.7569 29.5393 44.4962 29.224 44.1108C28.9087 43.7255 28.7407 43.2406 28.7499 42.7428V40.1395ZM38.9694 38.2788C38.8817 38.2638 38.7917 38.2699 38.7068 38.2965C38.622 38.3231 38.5446 38.3695 38.4811 38.4318L36.4111 40.4568C35.0032 40.3728 33.5989 40.2355 32.2014 40.045C32.0565 40.0306 31.9118 40.0729 31.7975 40.163C31.6832 40.2531 31.6083 40.384 31.5885 40.5282C31.5687 40.6724 31.6055 40.8186 31.6913 40.9362C31.777 41.0538 31.905 41.1336 32.0484 41.1588C33.2859 41.3298 34.8204 41.494 36.5934 41.593C36.6715 41.5974 36.7496 41.5855 36.8228 41.558C36.8961 41.5305 36.9627 41.488 37.0186 41.4333L38.7151 39.7773L40.6209 43.6248C40.661 43.7055 40.72 43.7754 40.7928 43.8285C40.8656 43.8817 40.9501 43.9166 41.0392 43.9303C41.1283 43.9439 41.2194 43.936 41.3048 43.9071C41.3902 43.8782 41.4674 43.8292 41.5299 43.7643L43.6269 41.5818C45.0732 41.4959 46.5158 41.3548 47.9514 41.1588C48.0947 41.1336 48.2227 41.0538 48.3085 40.9362C48.3942 40.8186 48.4311 40.6724 48.4113 40.5282C48.3914 40.384 48.3165 40.2531 48.2022 40.163C48.088 40.0729 47.9432 40.0306 47.7984 40.045C46.5879 40.2115 45.0826 40.3713 43.3434 40.4703C43.2018 40.4781 43.0684 40.5392 42.9699 40.6413L41.2734 42.4075L39.3789 38.5825C39.3394 38.5032 39.2817 38.4344 39.2105 38.3816C39.1393 38.3288 39.0567 38.2936 38.9694 38.2788Z" fill="#75E8F0"/>
<path d="M41.125 26.1986C41.5539 25.9509 41.8892 25.5686 42.0787 25.111C42.2683 24.6534 42.3015 24.1461 42.1733 23.6677C42.0451 23.1892 41.7627 22.7665 41.3697 22.465C40.9768 22.1634 40.4953 22 40 22C39.5047 22 39.0232 22.1634 38.6303 22.465C38.2373 22.7665 37.9549 23.1892 37.8267 23.6677C37.6985 24.1461 37.7317 24.6534 37.9213 25.111C38.1108 25.5686 38.4461 25.9509 38.875 26.1986V28.7501H34.375C31.6897 28.7501 29.1143 29.8168 27.2155 31.7156C25.3167 33.6144 24.25 36.1897 24.25 38.8751V40.0001C23.6533 40.0001 23.081 40.2371 22.659 40.6591C22.2371 41.081 22 41.6533 22 42.2501V46.7501C22 47.3468 22.2371 47.9191 22.659 48.341C23.081 48.763 23.6533 49.0001 24.25 49.0001V51.2501C24.25 52.4435 24.7241 53.5881 25.568 54.432C26.4119 55.276 27.5565 55.7501 28.75 55.7501H51.25C52.4435 55.7501 53.5881 55.276 54.432 54.432C55.2759 53.5881 55.75 52.4435 55.75 51.2501V49.0001C56.3467 49.0001 56.919 48.763 57.341 48.341C57.7629 47.9191 58 47.3468 58 46.7501V42.2501C58 41.6533 57.7629 41.081 57.341 40.6591C56.919 40.2371 56.3467 40.0001 55.75 40.0001V38.8751C55.75 36.1897 54.6833 33.6144 52.7845 31.7156C50.8856 29.8168 48.3103 28.7501 45.625 28.7501H41.125V26.1986ZM53.5 38.8751V51.2501C53.5 51.8468 53.2629 52.4191 52.841 52.841C52.419 53.263 51.8467 53.5001 51.25 53.5001H28.75C28.1533 53.5001 27.581 53.263 27.159 52.841C26.7371 52.4191 26.5 51.8468 26.5 51.2501V38.8751C26.5 36.7865 27.3297 34.7834 28.8065 33.3066C30.2834 31.8297 32.2864 31.0001 34.375 31.0001H45.625C47.7136 31.0001 49.7166 31.8297 51.1935 33.3066C52.6703 34.7834 53.5 36.7865 53.5 38.8751Z" fill="#75E8F0"/>
</svg>
