<svg width="80" height="80" viewBox="0 0 80 80" fill="none" xmlns="http://www.w3.org/2000/svg">
<circle cx="40" cy="40" r="39.5" stroke="#3639A4"/>
<g clip-path="url(#clip0_1067_4405)">
<path d="M56.0315 34.9488H53.7365C53.3146 27.7431 47.3296 22 40.0171 22C32.699 22 26.7196 27.7431 26.2921 34.9488H23.969C23.5921 34.9488 23.2827 35.2525 23.2827 35.635V44.0219C23.2827 44.3988 23.5865 44.7081 23.969 44.7081H29.5321C29.909 44.7081 30.2183 44.4044 30.2183 44.0219V35.635C30.2183 35.2581 29.9146 34.9488 29.5321 34.9488H27.659C28.0808 28.4913 33.4527 23.3669 40.0115 23.3669C46.5702 23.3669 51.9421 28.4913 52.364 34.9488H50.4627C50.0858 34.9488 49.7765 35.2525 49.7765 35.635V44.0219C49.7765 44.3088 49.9565 44.5562 50.204 44.6575H52.2796C51.7002 49.1125 48.7527 52.8194 44.7421 54.49V53.4944C44.7083 53.1513 44.4271 52.8756 44.0727 52.8756H37.7333C37.4465 52.8756 37.2046 53.05 37.0977 53.3031V57.5725C37.199 57.82 37.4465 58 37.7333 58H44.0783C44.4327 58 44.714 57.7244 44.7477 57.3813V55.9412C49.5233 54.1862 53.0502 49.8663 53.6577 44.6519H56.2846C56.5321 44.5506 56.7121 44.3031 56.7121 44.0163V35.635C56.7177 35.2581 56.4083 34.9488 56.0315 34.9488ZM28.8515 36.3212V43.3356H24.6552V36.3212H28.8515ZM43.3921 56.6275H38.4196V54.2425H43.3921V56.6275ZM55.3452 43.3356H51.149V36.3212H55.3452V43.3356Z" fill="#3639A4"/>
</g>
<defs>
<clipPath id="clip0_1067_4405">
<rect width="34" height="36" fill="white" transform="translate(23 22)"/>
</clipPath>
</defs>
</svg>
