<svg width="80" height="80" viewBox="0 0 80 80" fill="none" xmlns="http://www.w3.org/2000/svg">
<circle cx="40" cy="40" r="39.5" stroke="#FF7F72"/>
<g clip-path="url(#clip0_1067_4400)">
<path d="M32.125 49C31.8266 49 31.5405 48.8815 31.3295 48.6705C31.1185 48.4595 31 48.1734 31 47.875V43.375C31 43.0766 31.1185 42.7905 31.3295 42.5795C31.5405 42.3685 31.8266 42.25 32.125 42.25H34.375C34.6734 42.25 34.9595 42.3685 35.1705 42.5795C35.3815 42.7905 35.5 43.0766 35.5 43.375V47.875C35.5 48.1734 35.3815 48.4595 35.1705 48.6705C34.9595 48.8815 34.6734 49 34.375 49H32.125ZM38.875 49C38.5766 49 38.2905 48.8815 38.0795 48.6705C37.8685 48.4595 37.75 48.1734 37.75 47.875V38.875C37.75 38.5766 37.8685 38.2905 38.0795 38.0795C38.2905 37.8685 38.5766 37.75 38.875 37.75H41.125C41.4234 37.75 41.7095 37.8685 41.9205 38.0795C42.1315 38.2905 42.25 38.5766 42.25 38.875V47.875C42.25 48.1734 42.1315 48.4595 41.9205 48.6705C41.7095 48.8815 41.4234 49 41.125 49H38.875ZM45.625 49C45.3266 49 45.0405 48.8815 44.8295 48.6705C44.6185 48.4595 44.5 48.1734 44.5 47.875V34.375C44.5 34.0766 44.6185 33.7905 44.8295 33.5795C45.0405 33.3685 45.3266 33.25 45.625 33.25H47.875C48.1734 33.25 48.4595 33.3685 48.6705 33.5795C48.8815 33.7905 49 34.0766 49 34.375V47.875C49 48.1734 48.8815 48.4595 48.6705 48.6705C48.4595 48.8815 48.1734 49 47.875 49H45.625Z" fill="#FF7F72"/>
<path d="M31 22C29.8065 22 28.6619 22.4741 27.818 23.318C26.9741 24.1619 26.5 25.3065 26.5 26.5V53.5C26.5 54.6935 26.9741 55.8381 27.818 56.682C28.6619 57.5259 29.8065 58 31 58H49C50.1935 58 51.3381 57.5259 52.182 56.682C53.0259 55.8381 53.5 54.6935 53.5 53.5V26.5C53.5 25.3065 53.0259 24.1619 52.182 23.318C51.3381 22.4741 50.1935 22 49 22H31ZM31 24.25H49C49.5967 24.25 50.169 24.4871 50.591 24.909C51.0129 25.331 51.25 25.9033 51.25 26.5V53.5C51.25 54.0967 51.0129 54.669 50.591 55.091C50.169 55.5129 49.5967 55.75 49 55.75H31C30.4033 55.75 29.831 55.5129 29.409 55.091C28.9871 54.669 28.75 54.0967 28.75 53.5V26.5C28.75 25.9033 28.9871 25.331 29.409 24.909C29.831 24.4871 30.4033 24.25 31 24.25Z" fill="#FF7F72"/>
</g>
<defs>
<clipPath id="clip0_1067_4400">
<rect width="36" height="36" fill="white" transform="translate(22 22)"/>
</clipPath>
</defs>
</svg>
