<svg width="81" height="80" viewBox="0 0 81 80" fill="none" xmlns="http://www.w3.org/2000/svg">
<circle cx="40.5" cy="40" r="39.5" stroke="#3639A4"/>
<g clip-path="url(#clip0_692_2273)">
<path d="M24 40C24.0011 40.7637 24.1901 41.5153 24.5503 42.1887C24.9105 42.8621 25.4308 43.4365 26.0653 43.8613C25.6071 44.5832 25.3141 45.3974 25.2073 46.2457C25.1006 47.094 25.1827 47.9555 25.4478 48.7684C25.7129 49.5812 26.1545 50.3254 26.7409 50.9477C27.3272 51.57 28.0439 52.0549 28.8397 52.3678C29.1131 53.2962 29.6719 54.115 30.4368 54.7081C31.2016 55.3012 32.1337 55.6385 33.101 55.6722C33.4292 56.3678 33.9482 56.9558 34.5976 57.3678C35.2471 57.7798 36.0002 57.9989 36.7693 57.9994C37.5384 57.9999 38.2919 57.782 38.9419 57.3709C39.5919 56.9598 40.1118 56.3725 40.4409 55.6774H43.1612C43.3152 55.6774 43.4629 55.6162 43.5718 55.5074C43.6807 55.3985 43.7419 55.2508 43.7419 55.0968V54.1097C45.3115 53.7392 46.8108 53.117 48.1815 52.2673L48.8783 52.9641C48.9871 53.0729 49.1348 53.1341 49.2888 53.1341C49.4427 53.1341 49.5904 53.0729 49.6993 52.9641L53.805 48.8589C53.9139 48.75 53.975 48.6024 53.975 48.4484C53.975 48.2944 53.9139 48.1468 53.805 48.0379L53.1082 47.3411C53.9569 45.9707 54.5783 44.4721 54.9483 42.9033H55.9354C56.0894 42.9033 56.2371 42.8421 56.346 42.7332C56.4549 42.6243 56.516 42.4766 56.516 42.3226V36.5162C56.516 36.3622 56.4549 36.2145 56.346 36.1056C56.2371 35.9967 56.0894 35.9355 55.9354 35.9355H54.9483C54.5782 34.3659 53.9562 32.8666 53.1065 31.4959L53.8033 30.7992C53.9121 30.6903 53.9733 30.5426 53.9733 30.3886C53.9733 30.2347 53.9121 30.087 53.8033 29.9781L49.701 25.8707C49.5921 25.7618 49.4445 25.7007 49.2905 25.7007C49.1366 25.7007 48.9889 25.7618 48.88 25.8707L48.1832 26.5674C46.8118 25.7188 45.3119 25.098 43.7419 24.7291V23.742C43.7419 23.588 43.6807 23.4403 43.5718 23.3314C43.4629 23.2225 43.3152 23.1614 43.1612 23.1614H39.9445C39.5294 22.6966 38.997 22.3519 38.4031 22.1632C37.8092 21.9746 37.1755 21.9489 36.5683 22.089C35.9611 22.229 35.4026 22.5296 34.9513 22.9593C34.5 23.389 34.1724 23.9321 34.0027 24.5317C33.3914 24.3279 32.7403 24.2721 32.1032 24.3691C31.4661 24.466 30.8611 24.7129 30.338 25.0893C29.8149 25.4657 29.3886 25.961 29.0943 26.5343C28.8 27.1077 28.6461 27.7427 28.6451 28.3872C28.6451 28.4383 28.6451 28.4888 28.6451 28.5387C27.8852 28.7342 27.1872 29.1192 26.6164 29.6578C26.0457 30.1964 25.6209 30.8709 25.3818 31.6183C25.1426 32.3657 25.0969 33.1615 25.249 33.9314C25.401 34.7012 25.7458 35.42 26.2512 36.0203C25.5657 36.4345 24.9985 37.0182 24.6042 37.7152C24.2099 38.4123 24.0018 39.1992 24 40ZM40.8387 30.7394C43.1984 30.8817 45.4147 31.9194 47.0352 33.6406C48.6557 35.3618 49.558 37.6366 49.558 40.0006C49.558 42.3646 48.6557 44.6394 47.0352 46.3606C45.4147 48.0818 43.1984 49.1195 40.8387 49.2619V43.4839H41.6893L42.6764 44.9675C42.7296 45.0472 42.8017 45.1125 42.8863 45.1576C42.9709 45.2027 43.0654 45.2261 43.1612 45.2258H43.8487C43.9857 45.6133 44.2552 45.9398 44.6096 46.1477C44.9641 46.3556 45.3806 46.4315 45.7856 46.362C46.1906 46.2926 46.558 46.0821 46.8228 45.768C47.0877 45.4538 47.233 45.0561 47.233 44.6452C47.233 44.2343 47.0877 43.8366 46.8228 43.5224C46.558 43.2083 46.1906 42.9978 45.7856 42.9283C45.3806 42.8589 44.9641 42.9348 44.6096 43.1427C44.2552 43.3506 43.9857 43.6771 43.8487 44.0646H43.4719L42.4848 42.581C42.4316 42.5013 42.3595 42.4359 42.2749 42.3908C42.1903 42.3458 42.0958 42.3223 42 42.3226H40.8387V40.5807H45.01C45.147 40.9681 45.4165 41.2946 45.7709 41.5025C46.1254 41.7105 46.5419 41.7864 46.9469 41.7169C47.3519 41.6474 47.7193 41.437 47.9841 41.1228C48.249 40.8086 48.3943 40.411 48.3943 40C48.3943 39.5891 48.249 39.1914 47.9841 38.8773C47.7193 38.5631 47.3519 38.3527 46.9469 38.2832C46.5419 38.2137 46.1254 38.2896 45.7709 38.4976C45.4165 38.7055 45.147 39.032 45.01 39.4194H40.8387V37.6775H42C42.0955 37.6775 42.1896 37.6539 42.2739 37.6088C42.3582 37.5638 42.43 37.4986 42.4831 37.4191L43.4719 35.9355H43.8487C43.9857 36.323 44.2552 36.6495 44.6096 36.8574C44.9641 37.0653 45.3806 37.1412 45.7856 37.0717C46.1906 37.0023 46.558 36.7918 46.8228 36.4777C47.0877 36.1635 47.233 35.7658 47.233 35.3549C47.233 34.944 47.0877 34.5463 46.8228 34.2321C46.558 33.918 46.1906 33.7075 45.7856 33.638C45.3806 33.5686 44.9641 33.6445 44.6096 33.8524C44.2552 34.0603 43.9857 34.3868 43.8487 34.7742H43.1612C43.0657 34.7742 42.9716 34.7978 42.8873 34.8429C42.803 34.888 42.7312 34.9531 42.6781 35.0326L41.6893 36.5162H40.8387V30.7394ZM44.9032 44.6452C44.9032 44.5304 44.9372 44.4181 45.001 44.3226C45.0648 44.2271 45.1555 44.1527 45.2616 44.1087C45.3677 44.0648 45.4845 44.0533 45.5971 44.0757C45.7097 44.0981 45.8132 44.1534 45.8944 44.2346C45.9756 44.3158 46.0309 44.4193 46.0533 44.5319C46.0757 44.6445 46.0642 44.7613 46.0203 44.8674C45.9763 44.9735 45.9019 45.0642 45.8064 45.128C45.7109 45.1918 45.5987 45.2258 45.4838 45.2258C45.3298 45.2258 45.1821 45.1647 45.0732 45.0558C44.9643 44.9469 44.9032 44.7992 44.9032 44.6452ZM46.0645 40C46.0645 39.8852 46.0985 39.7729 46.1623 39.6775C46.2261 39.582 46.3168 39.5075 46.4229 39.4636C46.529 39.4197 46.6458 39.4082 46.7584 39.4306C46.871 39.453 46.9745 39.5083 47.0557 39.5895C47.1369 39.6707 47.1922 39.7741 47.2146 39.8868C47.237 39.9994 47.2255 40.1161 47.1815 40.2222C47.1376 40.3283 47.0632 40.419 46.9677 40.4828C46.8722 40.5466 46.7599 40.5807 46.6451 40.5807C46.4911 40.5807 46.3434 40.5195 46.2345 40.4106C46.1256 40.3017 46.0645 40.154 46.0645 40ZM44.9032 35.3549C44.9032 35.2401 44.9372 35.1278 45.001 35.0323C45.0648 34.9368 45.1555 34.8624 45.2616 34.8184C45.3677 34.7745 45.4845 34.763 45.5971 34.7854C45.7097 34.8078 45.8132 34.8631 45.8944 34.9443C45.9756 35.0255 46.0309 35.129 46.0533 35.2416C46.0757 35.3542 46.0642 35.471 46.0203 35.5771C45.9763 35.6832 45.9019 35.7739 45.8064 35.8377C45.7109 35.9015 45.5987 35.9355 45.4838 35.9355C45.3298 35.9355 45.1821 35.8744 45.0732 35.7655C44.9643 35.6566 44.9032 35.5089 44.9032 35.3549ZM42.5806 24.3227V25.1936C42.5806 25.3275 42.6268 25.4572 42.7114 25.5609C42.7961 25.6646 42.914 25.7359 43.0451 25.7627C44.7927 26.1176 46.4549 26.8077 47.9399 27.7949C48.0517 27.8689 48.1856 27.902 48.3189 27.8886C48.4523 27.8752 48.5769 27.816 48.6716 27.7212L49.2899 27.1028L52.5746 30.3875L51.9563 31.0059C51.8614 31.1006 51.8023 31.2252 51.7888 31.3585C51.7754 31.4919 51.8085 31.6258 51.8825 31.7375C52.8697 33.2225 53.5598 34.8848 53.9148 36.6323C53.9415 36.7635 54.0128 36.8813 54.1165 36.966C54.2202 37.0506 54.3499 37.0969 54.4838 37.0968H55.3548V41.742H54.4838C54.3499 41.7419 54.2202 41.7882 54.1165 41.8728C54.0128 41.9575 53.9415 42.0753 53.9148 42.2065C53.5598 43.954 52.8697 45.6163 51.8825 47.1013C51.8086 47.2129 51.7754 47.3467 51.7888 47.4799C51.8021 47.6131 51.8611 47.7376 51.9557 47.8323L52.5746 48.4519L49.2899 51.736L48.6716 51.117C48.5768 51.0223 48.4521 50.9632 48.3188 50.9499C48.1855 50.9366 48.0516 50.9698 47.9399 51.0439C46.4549 52.0312 44.7927 52.7213 43.0451 53.0761C42.914 53.1029 42.7961 53.1742 42.7114 53.2779C42.6268 53.3816 42.5806 53.5113 42.5806 53.6452V54.5161H40.7922C40.8215 54.3239 40.837 54.1299 40.8387 53.9355V50.422C43.5078 50.2811 46.0211 49.1216 47.8606 47.1824C49.7 45.2432 50.7255 42.6723 50.7255 39.9995C50.7255 37.3266 49.7 34.7557 47.8606 32.8165C46.0211 30.8774 43.5078 29.7178 40.8387 29.5769V25.484C40.8377 25.0881 40.7689 24.6953 40.6354 24.3227H42.5806ZM27.445 36.7304C27.5414 36.6952 27.6267 36.6349 27.6923 36.5559C27.7579 36.4769 27.8013 36.3819 27.8182 36.2806C27.8351 36.1793 27.8248 36.0754 27.7884 35.9794C27.752 35.8834 27.6908 35.7987 27.611 35.7341C27.082 35.3057 26.6904 34.7314 26.4848 34.0824C26.2792 33.4335 26.2686 32.7384 26.4544 32.0836C26.6402 31.4287 27.0142 30.8428 27.53 30.3985C28.0458 29.9542 28.6807 29.6712 29.3559 29.5845C29.4353 29.5746 29.5119 29.5483 29.5807 29.5074C29.6495 29.4665 29.7091 29.4118 29.7558 29.3468C29.8025 29.2817 29.8352 29.2077 29.8519 29.1294C29.8686 29.0511 29.869 28.9702 29.8529 28.8917C29.8205 28.7255 29.805 28.5565 29.8064 28.3872C29.8074 27.6175 30.1135 26.8796 30.6578 26.3353C31.202 25.791 31.94 25.4849 32.7097 25.484C33.2197 25.4817 33.7209 25.6162 34.1613 25.8736C34.248 25.9248 34.3466 25.9526 34.4473 25.9542C34.548 25.9558 34.6474 25.9312 34.7358 25.8827C34.8241 25.8343 34.8983 25.7637 34.9511 25.6779C35.0039 25.5921 35.0334 25.4941 35.0369 25.3934C35.0727 24.7946 35.3388 24.233 35.7794 23.826C36.22 23.419 36.8009 23.1982 37.4006 23.21C38.0003 23.2217 38.5722 23.4649 38.9966 23.8888C39.421 24.3127 39.6649 24.8843 39.6774 25.484V32.1846C39.0406 31.6092 38.213 31.2906 37.3548 31.2904V32.4517C37.9708 32.4517 38.5615 32.6964 38.9971 33.1319C39.4327 33.5675 39.6774 34.1583 39.6774 34.7742V53.9355C39.6759 54.6199 39.4326 55.2819 38.9905 55.8044C38.5484 56.3269 37.9359 56.6764 37.2612 56.7912C36.5864 56.906 35.8928 56.7788 35.3027 56.4319C34.7127 56.085 34.2642 55.5407 34.0364 54.8953C33.9938 54.7807 33.9169 54.6819 33.8163 54.6124C33.7157 54.5429 33.5961 54.5061 33.4738 54.5068C33.4448 54.5069 33.4159 54.5092 33.3873 54.5138C33.355 54.5163 33.3226 54.5171 33.2903 54.5161C32.4984 54.5207 31.7288 54.2534 31.1102 53.7589C30.4916 53.2645 30.0613 52.5728 29.8912 51.7993C29.8692 51.7013 29.8222 51.6107 29.7547 51.5363C29.6873 51.4619 29.6016 51.4063 29.5062 51.3749C28.7925 51.1394 28.1468 50.7339 27.6246 50.1934C27.1024 49.6529 26.7194 48.9936 26.5086 48.2722C26.2978 47.5508 26.2656 46.7889 26.4146 46.0523C26.5637 45.3157 26.8896 44.6263 27.3642 44.0436C27.4203 43.9752 27.46 43.8948 27.4803 43.8087C27.5005 43.7226 27.5009 43.6329 27.4812 43.5467C27.4615 43.4604 27.4224 43.3798 27.3668 43.3109C27.3112 43.2421 27.2406 43.1868 27.1604 43.1495C26.5399 42.8562 26.0198 42.3861 25.6654 41.7983C25.311 41.2105 25.1382 40.5311 25.1686 39.8454C25.199 39.1596 25.4312 38.4982 25.8362 37.944C26.2412 37.3899 26.8009 36.9677 27.445 36.7304Z" fill="#3639A4"/>
<path d="M32.7098 42.9032C33.6335 42.9042 34.5191 43.2715 35.1722 43.9247C35.8254 44.5778 36.1927 45.4634 36.1936 46.3871H37.3549C37.3535 45.1556 36.8637 43.9748 35.9929 43.104C35.122 42.2332 33.9413 41.7433 32.7098 41.7419V42.9032ZM32.1291 48.129H30.9679C30.9688 49.0527 31.3361 49.9383 31.9893 50.5915C32.6424 51.2446 33.528 51.612 34.4517 51.6129V50.4516C33.8357 50.4516 33.245 50.2069 32.8094 49.7713C32.3738 49.3358 32.1291 48.745 32.1291 48.129ZM34.4517 31.871V30.7097C33.3741 30.7109 32.341 31.1396 31.579 31.9015C30.8171 32.6635 30.3884 33.6966 30.3872 34.7742H31.5485C31.5494 34.0045 31.8556 33.2666 32.3998 32.7224C32.9441 32.1781 33.682 31.8719 34.4517 31.871Z" fill="#3639A4"/>
</g>
<defs>
<clipPath id="clip0_692_2273">
<rect width="32.516" height="36" fill="white" transform="translate(24 22)"/>
</clipPath>
</defs>
</svg>
