<svg width="80" height="80" viewBox="0 0 80 80" fill="none" xmlns="http://www.w3.org/2000/svg">
<circle cx="40" cy="40" r="39.5" stroke="#3639A4"/>
<g clip-path="url(#clip0_1067_4427)">
<path fill-rule="evenodd" clip-rule="evenodd" d="M22 22H24.25V55.75H58V58H22V22ZM44.5 29.875C44.5 29.5766 44.6185 29.2905 44.8295 29.0795C45.0405 28.8685 45.3266 28.75 45.625 28.75H54.625C54.9234 28.75 55.2095 28.8685 55.4205 29.0795C55.6315 29.2905 55.75 29.5766 55.75 29.875V38.875C55.75 39.1734 55.6315 39.4595 55.4205 39.6705C55.2095 39.8815 54.9234 40 54.625 40C54.3266 40 54.0405 39.8815 53.8295 39.6705C53.6185 39.4595 53.5 39.1734 53.5 38.875V33.025L45.3708 42.9633C45.2712 43.0847 45.1474 43.184 45.0072 43.2547C44.867 43.3254 44.7135 43.366 44.5567 43.3739C44.3999 43.3817 44.2431 43.3566 44.0966 43.3003C43.95 43.2439 43.8169 43.1574 43.7058 43.0465L37.885 37.2257L29.659 48.5365C29.4791 48.7653 29.2174 48.9155 28.9291 48.9554C28.6407 48.9954 28.3481 48.922 28.1127 48.7507C27.8774 48.5794 27.7175 48.3236 27.6669 48.0369C27.6162 47.7502 27.6786 47.4551 27.841 47.2135L36.841 34.8385C36.9365 34.7069 37.0594 34.5976 37.2013 34.5181C37.3431 34.4386 37.5005 34.3907 37.6626 34.3779C37.8247 34.3651 37.9877 34.3875 38.1403 34.4437C38.2929 34.5 38.4315 34.5886 38.5465 34.7035L44.4167 40.576L52.2512 31H45.625C45.3266 31 45.0405 30.8815 44.8295 30.6705C44.6185 30.4595 44.5 30.1734 44.5 29.875Z" fill="#3639A4"/>
</g>
<defs>
<clipPath id="clip0_1067_4427">
<rect width="36" height="36" fill="white" transform="translate(22 22)"/>
</clipPath>
</defs>
</svg>
