<svg width="80" height="80" viewBox="0 0 80 80" fill="none" xmlns="http://www.w3.org/2000/svg">
<circle cx="40" cy="40" r="39.5" stroke="#FF7F72"/>
<path d="M50.125 58C52.2136 58 54.2166 57.1703 55.6935 55.6935C57.1703 54.2166 58 52.2136 58 50.125C58 48.0364 57.1703 46.0334 55.6935 44.5565C54.2166 43.0797 52.2136 42.25 50.125 42.25C48.0364 42.25 46.0334 43.0797 44.5565 44.5565C43.0797 46.0334 42.25 48.0364 42.25 50.125C42.25 52.2136 43.0797 54.2166 44.5565 55.6935C46.0334 57.1703 48.0364 58 50.125 58ZM53.9028 47.8908L50.899 52.8993C50.767 53.1193 50.5866 53.3063 50.3714 53.4461C50.1562 53.586 49.912 53.6749 49.6573 53.7061C49.4027 53.7374 49.1442 53.7101 48.9016 53.6264C48.6591 53.5428 48.4388 53.4049 48.2575 53.2232L46.516 51.484C46.3048 51.2728 46.1861 50.9862 46.1861 50.6875C46.1861 50.3888 46.3048 50.1022 46.516 49.891C46.7272 49.6798 47.0138 49.5611 47.3125 49.5611C47.6112 49.5611 47.8978 49.6798 48.109 49.891L49.3398 51.124L51.9722 46.7342C52.0482 46.6075 52.1483 46.4969 52.267 46.4089C52.3857 46.3208 52.5205 46.257 52.6639 46.2211C52.8072 46.1851 52.9562 46.1778 53.1023 46.1994C53.2485 46.2211 53.389 46.2713 53.5158 46.3472C53.6425 46.4232 53.7531 46.5233 53.8411 46.642C53.9292 46.7607 53.993 46.8955 54.0289 47.0389C54.0649 47.1822 54.0722 47.3312 54.0506 47.4773C54.0289 47.6235 53.9787 47.764 53.9028 47.8908ZM46.75 33.25C46.75 35.0402 46.0388 36.7571 44.773 38.023C43.5071 39.2888 41.7902 40 40 40C38.2098 40 36.4929 39.2888 35.227 38.023C33.9612 36.7571 33.25 35.0402 33.25 33.25C33.25 31.4598 33.9612 29.7429 35.227 28.477C36.4929 27.2112 38.2098 26.5 40 26.5C41.7902 26.5 43.5071 27.2112 44.773 28.477C46.0388 29.7429 46.75 31.4598 46.75 33.25ZM40 37.75C41.1935 37.75 42.3381 37.2759 43.182 36.432C44.0259 35.5881 44.5 34.4435 44.5 33.25C44.5 32.0565 44.0259 30.9119 43.182 30.068C42.3381 29.2241 41.1935 28.75 40 28.75C38.8065 28.75 37.6619 29.2241 36.818 30.068C35.9741 30.9119 35.5 32.0565 35.5 33.25C35.5 34.4435 35.9741 35.5881 36.818 36.432C37.6619 37.2759 38.8065 37.75 40 37.75Z" fill="#FF7F72"/>
<path d="M40.576 53.5C40.3179 52.7693 40.145 52.0113 40.0608 51.241H28.75C28.7522 50.6875 29.0965 49.0225 30.622 47.497C32.089 46.03 34.8497 44.5 40 44.5C40.585 44.5 41.1407 44.5202 41.665 44.5562C42.1735 43.789 42.781 43.0938 43.474 42.4908C42.4232 42.3355 41.269 42.25 40 42.25C28.75 42.25 26.5 49 26.5 51.25C26.5 53.5 28.75 53.5 28.75 53.5H40.576Z" fill="#FF7F72"/>
</svg>
