<svg width="80" height="80" viewBox="0 0 80 80" fill="none" xmlns="http://www.w3.org/2000/svg">
<circle cx="40" cy="40" r="39.5" stroke="#75E8F0"/>
<g clip-path="url(#clip0_1067_4395)">
<path d="M53.5 24.25C54.0967 24.25 54.669 24.4871 55.091 24.909C55.5129 25.331 55.75 25.9033 55.75 26.5V53.5C55.75 54.0967 55.5129 54.669 55.091 55.091C54.669 55.5129 54.0967 55.75 53.5 55.75H26.5C25.9033 55.75 25.331 55.5129 24.909 55.091C24.4871 54.669 24.25 54.0967 24.25 53.5V26.5C24.25 25.9033 24.4871 25.331 24.909 24.909C25.331 24.4871 25.9033 24.25 26.5 24.25H53.5ZM26.5 22C25.3065 22 24.1619 22.4741 23.318 23.318C22.4741 24.1619 22 25.3065 22 26.5V53.5C22 54.6935 22.4741 55.8381 23.318 56.682C24.1619 57.5259 25.3065 58 26.5 58H53.5C54.6935 58 55.8381 57.5259 56.682 56.682C57.5259 55.8381 58 54.6935 58 53.5V26.5C58 25.3065 57.5259 24.1619 56.682 23.318C55.8381 22.4741 54.6935 22 53.5 22H26.5Z" fill="#75E8F0"/>
<path d="M37.4216 32.4536C37.5263 32.5581 37.6094 32.6822 37.6662 32.8189C37.7229 32.9556 37.7521 33.1021 37.7521 33.2501C37.7521 33.398 37.7229 33.5446 37.6662 33.6812C37.6094 33.8179 37.5263 33.9421 37.4216 34.0466L31.4658 40.0001L37.4216 45.9536C37.6328 46.1648 37.7515 46.4513 37.7515 46.7501C37.7515 47.0488 37.6328 47.3353 37.4216 47.5466C37.2103 47.7578 36.9238 47.8765 36.6251 47.8765C36.3263 47.8765 36.0398 47.7578 35.8286 47.5466L29.0786 40.7966C28.9738 40.6921 28.8907 40.5679 28.834 40.4312C28.7772 40.2946 28.748 40.148 28.748 40.0001C28.748 39.8521 28.7772 39.7056 28.834 39.5689C28.8907 39.4322 28.9738 39.3081 29.0786 39.2036L35.8286 32.4536C35.9331 32.3488 36.0572 32.2657 36.1939 32.209C36.3306 32.1522 36.4771 32.123 36.6251 32.123C36.773 32.123 36.9196 32.1522 37.0562 32.209C37.1929 32.2657 37.3171 32.3488 37.4216 32.4536ZM42.5786 32.4536C42.4738 32.5581 42.3907 32.6822 42.334 32.8189C42.2772 32.9556 42.248 33.1021 42.248 33.2501C42.248 33.398 42.2772 33.5446 42.334 33.6812C42.3907 33.8179 42.4738 33.9421 42.5786 34.0466L48.5343 40.0001L42.5786 45.9536C42.3673 46.1648 42.2486 46.4513 42.2486 46.7501C42.2486 47.0488 42.3673 47.3353 42.5786 47.5466C42.7898 47.7578 43.0763 47.8765 43.3751 47.8765C43.6738 47.8765 43.9603 47.7578 44.1716 47.5466L50.9216 40.7966C51.0263 40.6921 51.1094 40.5679 51.1662 40.4312C51.2229 40.2946 51.2521 40.148 51.2521 40.0001C51.2521 39.8521 51.2229 39.7056 51.1662 39.5689C51.1094 39.4322 51.0263 39.3081 50.9216 39.2036L44.1716 32.4536C44.0671 32.3488 43.9429 32.2657 43.8062 32.209C43.6696 32.1522 43.523 32.123 43.3751 32.123C43.2271 32.123 43.0806 32.1522 42.9439 32.209C42.8072 32.2657 42.6831 32.3488 42.5786 32.4536Z" fill="#75E8F0"/>
</g>
<defs>
<clipPath id="clip0_1067_4395">
<rect width="36" height="36" fill="white" transform="translate(22 22)"/>
</clipPath>
</defs>
</svg>
