<svg width="81" height="80" viewBox="0 0 81 80" fill="none" xmlns="http://www.w3.org/2000/svg">
<circle cx="40.5" cy="40" r="39.5" stroke="#75E8F0"/>
<g clip-path="url(#clip0_692_2269)">
<path d="M38.4655 51.1908C38.0966 51.1908 37.736 51.3002 37.4293 51.5052C37.1226 51.7101 36.8835 52.0014 36.7424 52.3422C36.6012 52.683 36.5642 53.058 36.6362 53.4198C36.7082 53.7816 36.8858 54.114 37.1467 54.3748C37.4075 54.6356 37.7398 54.8133 38.1016 54.8852C38.4634 54.9572 38.8385 54.9203 39.1793 54.7791C39.5201 54.6379 39.8114 54.3989 40.0163 54.0922C40.2213 53.7854 40.3306 53.4248 40.3306 53.056C40.3301 52.5615 40.1334 52.0874 39.7838 51.7377C39.4341 51.388 38.96 51.1914 38.4655 51.1908ZM38.4655 53.6777C38.3425 53.6777 38.2223 53.6412 38.1201 53.5729C38.0179 53.5046 37.9382 53.4075 37.8911 53.2939C37.8441 53.1803 37.8318 53.0553 37.8557 52.9347C37.8797 52.8141 37.9389 52.7033 38.0259 52.6163C38.1128 52.5294 38.2236 52.4702 38.3442 52.4462C38.4648 52.4222 38.5898 52.4345 38.7034 52.4816C38.817 52.5286 38.9141 52.6083 38.9824 52.7105C39.0508 52.8128 39.0872 52.933 39.0872 53.056C39.0871 53.2208 39.0215 53.3788 38.905 53.4954C38.7884 53.612 38.6303 53.6775 38.4655 53.6777ZM37.8438 26.3224H41.5741C41.7389 26.3224 41.8971 26.2569 42.0137 26.1403C42.1303 26.0237 42.1958 25.8656 42.1958 25.7007C42.1958 25.5358 42.1303 25.3777 42.0137 25.2611C41.8971 25.1445 41.7389 25.079 41.5741 25.079H37.8438C37.6789 25.079 37.5208 25.1445 37.4042 25.2611C37.2876 25.3777 37.2221 25.5358 37.2221 25.7007C37.2221 25.8656 37.2876 26.0237 37.4042 26.1403C37.5208 26.2569 37.6789 26.3224 37.8438 26.3224ZM35.363 26.3224C35.5279 26.3224 35.6861 26.2569 35.8027 26.1403C35.9193 26.0237 35.9848 25.8656 35.9848 25.7007C35.9848 25.5358 35.9193 25.3777 35.8027 25.2611C35.6861 25.1445 35.5279 25.079 35.363 25.079H35.357C35.1921 25.0798 35.0343 25.1461 34.9182 25.2632C34.8022 25.3804 34.7375 25.5388 34.7383 25.7037C34.7391 25.8686 34.8054 26.0264 34.9225 26.1425C35.0397 26.2585 35.1982 26.3232 35.363 26.3224Z" fill="#75E8F0"/>
<path d="M50.589 37.1881H50.0747V32.6005C50.0725 32.2497 49.9311 31.9141 49.6817 31.6674C49.4324 31.4206 49.0953 31.2829 48.7445 31.2843H48.4379C48.3246 31.2844 48.2118 31.2989 48.1021 31.3275V24.4573C48.1016 23.9628 47.9049 23.4887 47.5552 23.139C47.2056 22.7894 46.7315 22.5927 46.237 22.5922H30.6942C30.1997 22.5927 29.7256 22.7894 29.376 23.139C29.0263 23.4887 28.8296 23.9628 28.8291 24.4573V55.5428C28.8296 56.0373 29.0263 56.5114 29.376 56.8611C29.7256 57.2107 30.1997 57.4074 30.6942 57.408H46.237C46.7315 57.4074 47.2056 57.2107 47.5552 56.8611C47.9049 56.5114 48.1016 56.0373 48.1021 55.5428V44.2921C48.2118 44.3207 48.3246 44.3352 48.4379 44.3353H48.7445C49.0953 44.3367 49.4324 44.199 49.6817 43.9522C49.9311 43.7055 50.0725 43.3699 50.0747 43.0191V38.4315H50.589C50.7539 38.4315 50.912 38.366 51.0286 38.2494C51.1452 38.1329 51.2107 37.9747 51.2107 37.8098C51.2107 37.6449 51.1452 37.4868 51.0286 37.3702C50.912 37.2536 50.7539 37.1881 50.589 37.1881ZM46.237 56.1645H30.6942C30.5294 56.1644 30.3713 56.0988 30.2548 55.9823C30.1382 55.8657 30.0727 55.7077 30.0725 55.5428V24.4573C30.0727 24.2925 30.1382 24.1344 30.2548 24.0178C30.3713 23.9013 30.5294 23.8357 30.6942 23.8356H46.237C46.4018 23.8357 46.5599 23.9013 46.6764 24.0179C46.793 24.1344 46.8585 24.2925 46.8587 24.4573V32.5931C46.1049 33.6214 44.9263 34.4098 40.9549 34.4098H36.881C35.9981 34.4108 35.1517 34.762 34.5273 35.3863C33.903 36.0106 33.5518 36.8571 33.5508 37.74V37.8797C33.5531 38.7331 33.8833 39.5531 34.4732 40.1699C35.0631 40.7867 35.8675 41.1532 36.7201 41.1935V44.352C36.7206 44.8465 36.9173 45.3206 37.267 45.6703C37.6166 46.0199 38.0907 46.2166 38.5852 46.2172H38.8068C39.3013 46.2166 39.7754 46.0199 40.1251 45.6703C40.4747 45.3206 40.6714 44.8465 40.6719 44.352V41.2098H40.9549C44.9269 41.2098 46.1052 41.9985 46.8587 43.0269V55.5428C46.8585 55.7077 46.793 55.8657 46.6764 55.9823C46.5599 56.0988 46.4018 56.1644 46.237 56.1645ZM40.3332 39.9664H36.881C36.3278 39.9657 35.7974 39.7456 35.4062 39.3545C35.015 38.9633 34.7949 38.4329 34.7942 37.8797V37.74C34.7949 37.1867 35.015 36.6563 35.4062 36.2652C35.7974 35.874 36.3278 35.6539 36.881 35.6532H40.3332V39.9664ZM37.9635 41.2098H39.4285V44.352C39.4284 44.5169 39.3628 44.6749 39.2462 44.7915C39.1297 44.908 38.9716 44.9736 38.8068 44.9737H38.5852C38.4204 44.9736 38.2623 44.908 38.1458 44.7915C38.0292 44.6749 37.9637 44.5169 37.9635 44.352V41.2098ZM48.8313 43.0191C48.8293 43.0402 48.819 43.0596 48.8028 43.0732C48.7865 43.0869 48.7656 43.0936 48.7445 43.0919H48.4379C48.4236 43.0925 48.4095 43.0896 48.3966 43.0836C48.3837 43.0776 48.3725 43.0686 48.3638 43.0573C47.2983 41.3233 46.1678 40.0744 41.5766 39.973V35.6466C46.1678 35.5452 47.2983 34.2963 48.3638 32.5623C48.3724 32.551 48.3837 32.5419 48.3966 32.5359C48.4095 32.5299 48.4236 32.5271 48.4379 32.5277H48.7445C48.7656 32.526 48.7865 32.5327 48.8028 32.5464C48.819 32.56 48.8293 32.5794 48.8313 32.6005V43.0191Z" fill="#75E8F0"/>
</g>
<defs>
<clipPath id="clip0_692_2269">
<rect width="24" height="36" fill="white" transform="translate(28 22)"/>
</clipPath>
</defs>
</svg>
